<?xml version="1.0" encoding="UTF-8" standalone="no"?> <svg viewBox="0 0 3 2" version="1.1" id="svg4665" xmlns="http://www.w3.org/2000/svg" xmlns:svg="http://www.w3.org/2000/svg"> <defs id="defs4669"> <rect x="9.527914" y="28.58374" width="493.44565" height="123.86288" id="rect3077" /> <rect x="26.577866" y="193.06561" width="441.79431" height="127.87463" id="rect3463" /> </defs> <path fill="#0057B7" d="M0 0h3v2H0z" id="path4661" /> <path fill="gold" d="M0 1h3v1H0z" id="path4663" /> <path id="text3075" style="font-style:normal;font-weight:normal;font-size:40px;line-height:125%;font-family:sans-serif;letter-spacing:0px;word-spacing:0px;white-space:pre;shape-inside:url(#rect3077);display:inline;fill:#ffd700;fill-opacity:1;stroke:none;stroke-width:0.00583304;stroke-linecap:butt;stroke-linejoin:miter;stroke-dasharray:none;stroke-opacity:1" d="m 1.2379966,0.1433302 c -0.043595,0 -0.079333,0.010197 -0.1071576,0.030603 -0.027674,0.020252 -0.041489,0.046432 -0.041489,0.078587 0,0.023961 0.00607,0.044068 0.018273,0.0603 0.01235,0.016077 0.032544,0.028881 0.060516,0.038311 0.012201,0.00417 0.025179,0.00764 0.039017,0.010428 0.013986,0.00263 0.027273,0.00544 0.039772,0.00854 0.011903,0.00294 0.020894,0.00721 0.026995,0.01277 0.00625,0.00541 0.00934,0.011921 0.00934,0.019496 0,0.00819 -0.00215,0.014339 -0.00646,0.018513 -0.00417,0.00417 -0.00953,0.00765 -0.016074,0.010428 -0.00536,0.00217 -0.012264,0.00376 -0.020745,0.00469 -0.00848,9.224e-4 -0.015332,0.00136 -0.020539,0.00136 -0.020235,0 -0.041381,-0.0039 -0.063402,-0.011788 -0.021872,-0.00788 -0.041642,-0.019167 -0.059349,-0.033853 h -0.00941 v 0.082743 c 0.017854,0.00773 0.036972,0.014167 0.057356,0.019269 0.020533,0.00495 0.044599,0.00741 0.072125,0.00741 0.047613,0 0.085253,-0.010559 0.1129275,-0.031737 0.027824,-0.021333 0.041764,-0.049035 0.041764,-0.083045 0,-0.023807 -0.00614,-0.043117 -0.018341,-0.057958 -0.012052,-0.014995 -0.030814,-0.026858 -0.056258,-0.035515 -0.012945,-0.00433 -0.02503,-0.00773 -0.036338,-0.010202 -0.01116,-0.00248 -0.022832,-0.005 -0.035033,-0.00763 -0.018598,-0.00402 -0.03129,-0.00843 -0.037986,-0.013223 -0.00669,-0.00494 -0.010028,-0.011962 -0.010028,-0.021082 0,-0.00603 0.00208,-0.011382 0.00625,-0.01602 0.00416,-0.00479 0.00917,-0.00834 0.014974,-0.010655 0.00654,-0.00278 0.01327,-0.00466 0.020264,-0.00559 0.00714,-0.00108 0.01429,-0.00158 0.021431,-0.00158 0.020236,0 0.040075,0.00377 0.059418,0.011334 0.019491,0.00742 0.035929,0.016677 0.04932,0.027808 h 0.00913 v -0.079493 c -0.015623,-0.00665 -0.034145,-0.012145 -0.05557,-0.016473 -0.021278,-0.00448 -0.042834,-0.00673 -0.064707,-0.00673 z m 0.3247008,0 c -0.043595,0 -0.079265,0.010197 -0.1070888,0.030603 -0.027675,0.020252 -0.041557,0.046432 -0.041557,0.078587 0,0.023961 0.00614,0.044068 0.018341,0.0603 0.01235,0.016077 0.032475,0.028881 0.060448,0.038311 0.012201,0.00417 0.025248,0.00764 0.039085,0.010428 0.013987,0.00263 0.027204,0.00544 0.039703,0.00854 0.011904,0.00294 0.020895,0.00721 0.026995,0.01277 0.00625,0.00541 0.00941,0.011921 0.00941,0.019496 0,0.00819 -0.00215,0.014339 -0.00646,0.018513 -0.00416,0.00417 -0.00953,0.00765 -0.016074,0.010428 -0.00536,0.00217 -0.012332,0.00376 -0.020814,0.00469 -0.00848,9.224e-4 -0.015262,0.00136 -0.02047,0.00136 -0.020235,0 -0.04138,-0.0039 -0.063402,-0.011788 -0.021872,-0.00788 -0.041712,-0.019167 -0.059418,-0.033853 h -0.00934 v 0.082743 c 0.017855,0.00773 0.036972,0.014167 0.057357,0.019269 0.020532,0.00495 0.044599,0.00741 0.072125,0.00741 0.047613,0 0.085253,-0.010559 0.1129275,-0.031737 0.027823,-0.021333 0.041696,-0.049035 0.041696,-0.083045 0,-0.023807 -0.00607,-0.043117 -0.018272,-0.057958 -0.012052,-0.014995 -0.030814,-0.026858 -0.056258,-0.035515 -0.012945,-0.00433 -0.025098,-0.00773 -0.036406,-0.010202 -0.01116,-0.00248 -0.022831,-0.005 -0.035032,-0.00763 -0.018599,-0.00402 -0.031222,-0.00843 -0.037917,-0.013223 -0.00669,-0.00494 -0.010028,-0.011962 -0.010028,-0.021082 0,-0.00603 0.00208,-0.011382 0.00625,-0.01602 0.00417,-0.00479 0.0091,-0.00834 0.014906,-0.010655 0.00654,-0.00278 0.013339,-0.00466 0.020332,-0.00559 0.00714,-0.00108 0.01429,-0.00158 0.021431,-0.00158 0.020235,0 0.040007,0.00377 0.059349,0.011334 0.019492,0.00742 0.035929,0.016677 0.04932,0.027808 h 0.00913 v -0.079493 c -0.015623,-0.00665 -0.034145,-0.012145 -0.05557,-0.016473 -0.021277,-0.00448 -0.042834,-0.00673 -0.064706,-0.00673 z m -1.18601341,0.00627 v 0.3452533 h 0.0852452 V 0.368285 h 0.0394972 l 0.0906032,0.1265701 H 0.696714 L 0.58584723,0.3469002 c 0.0211273,-0.010667 0.0373253,-0.024047 0.0486332,-0.040125 0.0114567,-0.016078 0.0171718,-0.036833 0.0171718,-0.06234 0,-0.018551 -0.003689,-0.033957 -0.0111287,-0.04617 -0.00729,-0.012367 -0.017245,-0.022421 -0.0297431,-0.03015 C 0.59843083,0.1603854 0.58521163,0.1553967 0.57107713,0.153078 0.55694153,0.150757 0.54009233,0.1496 0.52045203,0.1496 Z m 0.3528643,0 v 0.2204965 c 0,0.042512 0.0124492,0.075131 0.0372989,0.097856 0.0249979,0.022725 0.0618002,0.034079 0.11045456,0.034079 0.0486543,0 0.0854575,-0.011355 0.11045485,-0.034079 C 1.0127545,0.4452275 1.0252617,0.4125368 1.0252617,0.36987 V 0.1496004 H 0.9391235 V 0.365034 c 0,0.024889 -0.005006,0.04297 -0.014973,0.054255 -0.00982,0.011284 -0.0254195,0.016926 -0.0468472,0.016926 -0.0217217,0 -0.0374509,-0.00586 -0.0471216,-0.017607 C 0.8205107,0.4068601 0.8156889,0.3889956 0.8156889,0.3650339 V 0.1496003 Z m 1.01037121,0 v 0.061207 h 0.054472 v 0.222839 h -0.054472 v 0.061207 H 1.9345201 V 0.4336464 H 1.8801169 V 0.2108075 h 0.054403 v -0.061207 z m 0.350185,0 -0.1227502,0.3452531 h 0.086345 l 0.023012,-0.069821 h 0.1232312 l 0.022943,0.069821 h 0.08861 L 2.1887443,0.149602 Z m 0.2691988,0 v 0.3452531 h 0.078513 V 0.2578854 l 0.1410906,0.2369697 h 0.082566 V 0.1496019 H 2.5828912 V 0.3473535 L 2.4617208,0.1496019 Z m -1.89737405,0.063549 h 0.0310483 c 0.010265,0 0.0192593,2.744e-4 0.0269947,9.063e-4 0.007738,4.697e-4 0.0145309,0.00191 0.0203309,0.00438 0.008333,0.00355 0.0141619,0.00848 0.0175846,0.01466 0.003423,0.00618 0.005153,0.013558 0.005153,0.022215 0,0.00974 -0.001435,0.01755 -0.00426,0.023425 -0.002664,0.00572 -0.006962,0.011 -0.0129147,0.015793 -0.006248,0.00494 -0.0139921,0.00813 -0.0232178,0.00952 -0.009225,0.00139 -0.0206559,0.00204 -0.0343456,0.00204 H 0.46192575 Z M 2.1383253,0.237935 2.1791273,0.3617847 H 2.0974544 Z M 1.6621615,0.5083795 c -0.043595,0 -0.079333,0.010197 -0.1071574,0.030604 -0.027674,0.020251 -0.04149,0.046432 -0.04149,0.078587 0,0.023962 0.00607,0.044068 0.018272,0.0603 0.01235,0.016077 0.032544,0.028881 0.060516,0.038311 0.012201,0.00417 0.025179,0.00765 0.039017,0.010428 0.013986,0.00263 0.027274,0.00545 0.039772,0.00854 0.011904,0.00294 0.020895,0.00721 0.026995,0.01277 0.00625,0.00541 0.00934,0.011921 0.00934,0.019496 0,0.00819 -0.00215,0.014339 -0.00646,0.018513 -0.00417,0.00417 -0.00953,0.00764 -0.016074,0.010428 -0.00536,0.00217 -0.012264,0.00376 -0.020745,0.00468 -0.00848,9.225e-4 -0.015331,0.00136 -0.020539,0.00136 -0.020236,0 -0.041381,-0.0039 -0.063402,-0.011788 -0.021873,-0.00788 -0.041643,-0.019168 -0.059349,-0.033853 h -0.00941 v 0.082743 c 0.017854,0.00773 0.037041,0.014168 0.057425,0.019269 0.020533,0.00495 0.04453,0.00741 0.072057,0.00741 0.047612,0 0.085252,-0.010558 0.1129275,-0.031737 0.027824,-0.021333 0.041763,-0.049036 0.041763,-0.083045 0,-0.023807 -0.00614,-0.043117 -0.018341,-0.057958 -0.012051,-0.014995 -0.030814,-0.026858 -0.056258,-0.035515 -0.012945,-0.00433 -0.02503,-0.00773 -0.036337,-0.010202 -0.01116,-0.00247 -0.022831,-0.005 -0.035032,-0.00763 -0.018598,-0.00402 -0.03129,-0.00843 -0.037986,-0.013224 -0.00669,-0.00495 -0.010028,-0.011962 -0.010028,-0.021082 0,-0.00603 0.00208,-0.011382 0.00625,-0.01602 0.00417,-0.00479 0.00917,-0.00834 0.014974,-0.010655 0.00654,-0.00278 0.013339,-0.00467 0.020333,-0.00559 0.00714,-0.00108 0.014221,-0.00159 0.021362,-0.00159 0.020235,0 0.040075,0.00376 0.059418,0.011335 0.019491,0.00742 0.035929,0.016677 0.04932,0.027808 h 0.00913 v -0.079494 c -0.015623,-0.00665 -0.034145,-0.012145 -0.05557,-0.016473 -0.021278,-0.00448 -0.042834,-0.00672 -0.064706,-0.00672 z m -1.3884447,0.00627 0.0894353,0.3452531 H 0.4580139 L 0.5160574,0.6349498 0.5756811,0.8599046 H 0.6705429 L 0.76004708,0.5146512 H 0.67274118 L 0.61916228,0.7523023 0.56091258,0.5146528 H 0.47546148 L 0.41432668,0.7523023 0.36315208,0.5146528 Z m 0.62913802,0 -0.12275032,0.3452531 h 0.0863444 l 0.0230099,-0.069821 h 0.1232311 l 0.022943,0.069821 h 0.088611 L 1.0014932,0.5146528 Z m 0.26912998,0 v 0.3452531 h 0.085314 V 0.7333341 h 0.039497 l 0.090603,0.1265702 H 1.4920834 L 1.381148,0.7119511 c 0.021128,-0.010666 0.037325,-0.024047 0.048633,-0.040125 0.011457,-0.016078 0.017172,-0.036833 0.017172,-0.06234 0,-0.018551 -0.00369,-0.033957 -0.011128,-0.04617 C 1.428525,0.5509492 1.418649,0.5408953 1.406151,0.533166 1.393801,0.525435 1.380583,0.5204473 1.366448,0.5181288 1.352313,0.5158108 1.335395,0.5146518 1.315755,0.5146518 Z m 0.6823046,0 v 0.3452531 h 0.085726 V 0.7077935 h 0.1265282 v 0.1521108 h 0.085726 V 0.5146512 H 2.0665437 V 0.6409946 H 1.9400154 V 0.5146512 Z m 0.3678386,0 v 0.061207 H 2.2766 v 0.222839 H 2.222128 v 0.061207 h 0.1946007 v -0.061207 h -0.054472 v -0.222839 h 0.054472 v -0.061207 z m 0.2644592,0 v 0.3452531 h 0.085726 V 0.7474647 h 0.053304 c 0.024252,0 0.044504,-0.00347 0.060723,-0.010428 0.016367,-0.00696 0.031202,-0.017226 0.044443,-0.03083 0.00967,-0.010049 0.017117,-0.022416 0.022324,-0.037102 0.00521,-0.014841 0.00777,-0.03003 0.00777,-0.04549 0,-0.019942 -0.00358,-0.03701 -0.010715,-0.051233 -0.00699,-0.014222 -0.017176,-0.025865 -0.030567,-0.034986 -0.01116,-0.00758 -0.024024,-0.013292 -0.038604,-0.017002 -0.014433,-0.00386 -0.032176,-0.00574 -0.053304,-0.00574 z m -1.2292885,0.06355 h 0.030979 c 0.010266,0 0.019258,2.744e-4 0.026995,9.033e-4 0.00774,4.697e-4 0.01453,0.00191 0.020333,0.00438 0.00833,0.00355 0.014231,0.00848 0.017653,0.01466 0.00343,0.00618 0.00515,0.013559 0.00515,0.022216 0,0.00974 -0.00143,0.01755 -0.00425,0.023425 -0.00268,0.00572 -0.00703,0.011001 -0.012982,0.015793 -0.00625,0.00495 -0.013993,0.00813 -0.023218,0.00952 -0.00923,0.00139 -0.020656,0.00204 -0.034346,0.00204 h -0.026308 z m 1.3150145,9.033e-4 h 0.0147 c 0.014136,0 0.025453,1.948e-4 0.033933,6.825e-4 0.00848,3.011e-4 0.017175,0.00233 0.026102,0.00604 0.00669,0.00278 0.012595,0.0077 0.017653,0.014811 0.00506,0.00696 0.00756,0.015348 0.00756,0.025087 0,0.00989 -0.00124,0.018282 -0.00377,0.025239 -0.00238,0.0068 -0.00631,0.012659 -0.011815,0.017607 -0.0064,0.00557 -0.014382,0.00933 -0.023904,0.011183 -0.00938,0.00186 -0.021343,0.0028 -0.035925,0.0028 h -0.024522 z m -1.62123742,0.023878 0.0408021,0.1238499 h -0.0816729 z" /> <g aria-label="GO FUCK YOURSELF" transform="matrix(0.00603964,0,0,0.00603964,0.05059601,0.03458108)" id="text3461" style="font-size:40px;line-height:125%;letter-spacing:0px;word-spacing:0px;white-space:pre;shape-inside:url(#rect3463);display:inline;fill:#0057b7;stroke-width:1px"> <path d="m 117.24636,236.42145 q -3.64584,1.42188 -9.66147,2.84376 -6.01562,1.38541 -11.994793,1.38541 -13.854173,0 -21.692719,-7.51042 -7.838545,-7.54688 -7.838545,-20.81772 0,-12.65104 7.911462,-20.38021 7.911462,-7.76563 22.057302,-7.76563 5.359373,0 10.208343,0.98437 4.84896,0.94792 10.79167,3.82813 v 12.72396 h -1.56771 q -1.02084,-0.76562 -2.98959,-2.15104 -1.96875,-1.42187 -3.79167,-2.40625 -2.11458,-1.16667 -4.95833,-2.00521 -2.80729,-0.83854 -5.97917,-0.83854 -3.718752,0 -6.744795,1.09375 -3.026043,1.09375 -5.432295,3.35417 -2.296876,2.1875 -3.645835,5.57813 -1.3125,3.35416 -1.3125,7.76562 0,9.00522 4.776044,13.78126 4.776044,4.77604 14.109381,4.77604 0.80208,0 1.75,-0.0365 0.98438,-0.0365 1.78646,-0.10938 V 219.86936 H 92.19947 v -10.24479 h 25.04689 z" style="font-weight:bold;font-size:74.6667px; text-align:center;text-anchor:middle" id="path7780" /> <path d="m 182.57972,212.3954 q 0,12.97917 -7.4375,20.63543 -7.43751,7.61979 -20.56251,7.61979 -13.08855,0 -20.52605,-7.61979 -7.43751,-7.65626 -7.43751,-20.63543 0,-13.08855 7.43751,-20.67188 7.4375,-7.6198 20.52605,-7.6198 13.05209,0 20.52605,7.6198 7.47396,7.58333 7.47396,20.67188 z m -18.5573,13.7448 q 2.04167,-2.47917 3.02604,-5.83334 0.98438,-3.39062 0.98438,-7.94792 0,-4.88542 -1.13021,-8.3125 -1.13021,-3.42709 -2.95313,-5.54167 -1.85937,-2.1875 -4.30208,-3.17188 -2.40625,-0.98437 -5.03125,-0.98437 -2.66146,0 -5.03126,0.94791 -2.33333,0.94792 -4.30208,3.13542 -1.82292,2.04167 -2.98959,5.65105 -1.13021,3.57291 -1.13021,8.3125 0,4.84896 1.09375,8.27605 1.13021,3.39062 2.95313,5.54167 1.82292,2.15104 4.26563,3.17187 2.44271,1.02084 5.14063,1.02084 2.69791,0 5.14062,-1.02084 2.44271,-1.05729 4.26563,-3.24479 z" style="font-weight:bold;font-size:74.6667px; text-align:center;text-anchor:middle" id="path7782" /> <path d="m 257.68392,195.73393 h -24.97397 v 10.09897 h 23.15106 v 10.5 h -23.15106 v 23.18751 h -13.92709 v -54.28648 h 38.90106 z" style="font-weight:bold;font-size:74.6667px; text-align:center;text-anchor:middle" id="path7784" /> <path d="m 314.88707,219.86936 q 0,10.06251 -6.125,15.42188 -6.12501,5.35938 -18.04689,5.35938 -11.92188,0 -18.04688,-5.35938 -6.08855,-5.35937 -6.08855,-15.38542 v -34.67189 h 14.07293 v 33.86981 q 0,5.65104 2.36979,8.42188 2.36979,2.77083 7.69271,2.77083 5.25,0 7.65626,-2.66146 2.44271,-2.66146 2.44271,-8.53125 v -33.86981 h 14.07292 z" style="font-weight:bold;font-size:74.6667px; text-align:center;text-anchor:middle" id="path7786" /> <path d="m 352.51208,240.57771 q -6.05208,0 -11.19271,-1.78646 -5.10417,-1.78646 -8.78646,-5.32292 -3.6823,-3.53646 -5.72396,-8.82292 -2.00521,-5.28646 -2.00521,-12.21355 0,-6.45313 1.93229,-11.70313 1.93229,-5.25 5.61458,-9.00521 3.53646,-3.60938 8.75001,-5.57813 5.25,-1.96875 11.44792,-1.96875 3.42709,0 6.16146,0.40104 2.77084,0.36458 5.10417,0.98437 2.44271,0.69271 4.41146,1.56771 2.00521,0.83855 3.5,1.56771 v 13.16147 h -1.60416 q -1.02084,-0.875 -2.58855,-2.07813 -1.53125,-1.20312 -3.5,-2.36979 -2.00521,-1.16667 -4.33854,-1.96875 -2.33334,-0.80209 -4.9948,-0.80209 -2.95312,0 -5.61458,0.94792 -2.66146,0.91146 -4.92188,3.0625 -2.15104,2.07813 -3.5,5.50521 -1.3125,3.42709 -1.3125,8.31251 0,5.10417 1.42187,8.53125 1.45834,3.42709 3.64584,5.39584 2.22396,2.00521 4.95833,2.88021 2.73438,0.83854 5.39584,0.83854 2.55209,0 5.03125,-0.76563 2.51563,-0.76562 4.63021,-2.07812 1.78646,-1.05729 3.31771,-2.26042 1.53125,-1.20313 2.51563,-2.07813 h 1.45833 v 12.97918 q -2.04166,0.91146 -3.90104,1.71354 -1.85938,0.80208 -3.90104,1.38542 -2.66146,0.76562 -4.9948,1.16666 -2.33333,0.40105 -6.41667,0.40105 z" style="font-weight:bold;font-size:74.6667px; text-align:center;text-anchor:middle" id="path7788" /> <path d="m 432.684,239.52041 h -17.17188 l -16.22397,-21.72917 -3.28125,3.97396 v 17.75521 h -14.00001 v -54.28648 h 14.00001 v 24.57293 l 19.39584,-24.57293 h 16.22397 l -21.21876,25.1198 z" style="font-weight:bold;font-size:74.6667px; text-align:center;text-anchor:middle" id="path7790" /> <path d="M 83.303633,245.19473 63.287998,278.4812 v 21.00001 H 49.287991 V 279.13745 L 28.944232,245.19473 h 15.895841 l 11.739589,21.00001 11.338547,-21.00001 z" style="font-weight:bold;font-size:74.6667px; text-align:center;text-anchor:middle" id="path7792" /> <path d="m 143.35054,272.3562 q 0,12.97917 -7.43751,20.63543 -7.4375,7.61979 -20.56251,7.61979 -13.08854,0 -20.526048,-7.61979 -7.437504,-7.65626 -7.437504,-20.63543 0,-13.08855 7.437504,-20.67188 7.437508,-7.6198 20.526048,-7.6198 13.05209,0 20.52605,7.6198 7.47397,7.58333 7.47397,20.67188 z m -18.5573,13.7448 q 2.04166,-2.47917 3.02604,-5.83334 0.98437,-3.39062 0.98437,-7.94792 0,-4.88542 -1.1302,-8.3125 -1.13021,-3.42709 -2.95313,-5.54167 -1.85938,-2.1875 -4.30209,-3.17188 -2.40625,-0.98437 -5.03125,-0.98437 -2.66146,0 -5.03125,0.94791 -2.33334,0.94792 -4.30209,3.13542 -1.82291,2.04167 -2.98958,5.65105 -1.13021,3.57292 -1.13021,8.3125 0,4.84896 1.09375,8.27605 1.13021,3.39062 2.95313,5.54167 1.82291,2.15104 4.26562,3.17187 2.44271,1.02084 5.14063,1.02084 2.69792,0 5.14063,-1.02084 2.44271,-1.05729 4.26563,-3.24479 z" style="font-weight:bold;font-size:74.6667px; text-align:center;text-anchor:middle" id="path7794" /> <path d="m 201.57452,279.83016 q 0,10.06251 -6.125,15.42188 -6.125,5.35938 -18.04688,5.35938 -11.92189,0 -18.04689,-5.35938 -6.08854,-5.35937 -6.08854,-15.38542 v -34.67189 h 14.07292 v 33.86981 q 0,5.65104 2.36979,8.42188 2.3698,2.77083 7.69272,2.77083 5.25,0 7.65625,-2.66146 2.44271,-2.66146 2.44271,-8.53125 v -33.86981 h 14.07292 z" style="font-weight:bold;font-size:74.6667px; text-align:center;text-anchor:middle" id="path7796" /> <path d="m 245.10579,261.81974 q 0,-2.04167 -0.83854,-3.5 -0.83855,-1.45834 -2.88021,-2.29688 -1.42188,-0.58333 -3.31771,-0.69271 -1.89584,-0.14583 -4.41146,-0.14583 h -5.06771 v 14.6198 h 4.30208 q 3.35417,0 5.61459,-0.32813 2.26042,-0.32812 3.79167,-1.49479 1.45833,-1.13021 2.11458,-2.47917 0.69271,-1.38542 0.69271,-3.68229 z m 21.83855,37.66147 h -17.09897 l -14.80209,-19.90626 h -6.45312 v 19.90626 h -13.92709 v -54.28648 h 23.47917 q 4.81251,0 8.27605,0.54687 3.46354,0.54688 6.48959,2.3698 3.0625,1.82292 4.84896,4.73958 1.82291,2.88021 1.82291,7.25521 0,6.01563 -2.80729,9.8073 -2.77083,3.79167 -7.94792,6.3073 z" style="font-weight:bold;font-size:74.6667px; text-align:center;text-anchor:middle" id="path7798" /> <path d="m 316.5277,282.41871 q 0,8.02083 -6.81771,13.05209 -6.78125,4.99479 -18.44793,4.99479 -6.74479,0 -11.77604,-1.16667 -4.9948,-1.20312 -9.3698,-3.02604 v -13.01563 h 1.53125 q 4.33854,3.46354 9.69792,5.32292 5.39584,1.85937 10.35417,1.85937 1.27605,0 3.35417,-0.21875 2.07813,-0.21875 3.39063,-0.72916 1.60417,-0.65625 2.625,-1.64063 1.05729,-0.98438 1.05729,-2.91667 0,-1.78646 -1.53125,-3.0625 -1.49479,-1.3125 -4.41146,-2.00521 -3.0625,-0.72917 -6.48959,-1.34896 -3.39062,-0.65625 -6.38021,-1.64062 -6.85417,-2.22396 -9.88021,-6.01563 -2.98958,-3.82813 -2.98958,-9.47917 0,-7.58334 6.78125,-12.35938 6.81771,-4.81251 17.50001,-4.81251 5.35937,0 10.57292,1.0573 5.25,1.02083 9.07813,2.58854 v 12.50521 h -1.49479 q -3.28126,-2.625 -8.0573,-4.375 -4.73959,-1.78646 -9.69792,-1.78646 -1.75,0 -3.5,0.25521 -1.71355,0.21875 -3.31771,0.875 -1.42188,0.54688 -2.44271,1.67709 -1.02084,1.09375 -1.02084,2.51562 0,2.15104 1.64063,3.31771 1.64063,1.13021 6.19792,2.07813 2.98958,0.61979 5.72396,1.20312 2.77084,0.58334 5.94271,1.60417 6.23438,2.04167 9.18751,5.57813 2.98958,3.5 2.98958,9.11459 z" style="font-weight:bold;font-size:74.6667px; text-align:center;text-anchor:middle" id="path7800" /> <path d="m 365.3819,299.48121 h -39.26565 v -54.28648 h 39.26565 v 10.5 h -25.33856 v 9.3698 h 23.51564 v 10.50001 h -23.51564 v 13.41667 h 25.33856 z" style="font-weight:bold;font-size:74.6667px; text-align:center;text-anchor:middle" id="path7802" /> <path d="m 416.27774,299.48121 h -39.15627 v -54.28648 h 14.00001 v 43.78648 h 25.15626 z" style="font-weight:bold;font-size:74.6667px; text-align:center;text-anchor:middle" id="path7804" /> <path d="m 463.60069,255.69473 h -24.97397 v 10.09897 h 23.15105 v 10.5 h -23.15105 v 23.18751 h -13.92709 v -54.28648 h 38.90106 z" style="font-weight:bold;font-size:74.6667px; text-align:center;text-anchor:middle" id="path7806" /></g></svg>