<?xml version="1.0" encoding="UTF-8" standalone="no"?> <svg viewBox="0 85.333 512 341.333" version="1.1" id="svg2654" xmlns="http://www.w3.org/2000/svg" xmlns:svg="http://www.w3.org/2000/svg"> <defs id="defs2658"> <rect x="26.577865" y="193.06562" width="441.79432" height="127.87463" id="rect3463" /> <rect x="9.5279138" y="28.583741" width="493.44564" height="123.86288" id="rect3077" /> </defs> <path fill="#FFDA44" d="M0 85.337h512v341.326H0z" id="path2650" /> <path fill="#338AF3" d="M0 85.337h512V256H0z" id="path2652" /> <g aria-label="RUSSIAN WARSHIP" transform="translate(2.442703,95.857976)" id="text3075" style="font-size:40px;line-height:125%;letter-spacing:0px;word-spacing:0px;white-space:pre;shape-inside:url(#rect3077);display:inline;fill:#ffda44;stroke-width:1.00157"> <path d="m 88.925781,36.218847 q 0,-2.1875 -0.898437,-3.75 -0.898438,-1.5625 -3.085938,-2.460937 -1.523437,-0.625 -3.554687,-0.742188 -2.03125,-0.15625 -4.726563,-0.15625 h -5.429687 v 15.664063 h 4.609375 q 3.59375,0 6.015625,-0.351563 2.421875,-0.351562 4.0625,-1.601562 1.5625,-1.210938 2.265625,-2.65625 0.742187,-1.484375 0.742187,-3.945313 z M 112.32422,76.57041 H 94.003906 L 78.144531,55.242285 H 71.230469 V 76.57041 H 56.308594 V 18.406347 h 25.15625 q 5.15625,0 8.867187,0.585938 3.710938,0.585937 6.953125,2.539062 3.281254,1.953125 5.195314,5.078125 1.95312,3.085938 1.95312,7.773438 0,6.445312 -3.00781,10.507812 -2.968749,4.0625 -8.515624,6.757813 z" style="font-weight:bold;font-size:80px; text-align:center;text-anchor:middle" id="path7253" /> <path d="m 169.82422,55.515722 q 0,10.78125 -6.5625,16.523438 -6.5625,5.742187 -19.33594,5.742187 -12.77344,0 -19.33594,-5.742187 -6.52343,-5.742188 -6.52343,-16.484375 V 18.406347 h 15.07812 V 54.69541 q 0,6.054687 2.53906,9.023437 2.53907,2.96875 8.24219,2.96875 5.625,0 8.20313,-2.851562 2.61718,-2.851563 2.61718,-9.140625 V 18.406347 h 15.07813 z" style="font-weight:bold;font-size:80px; text-align:center;text-anchor:middle" id="path7255" /> <path d="m 230.41016,58.28916 q 0,8.59375 -7.30469,13.984375 -7.26563,5.351562 -19.76563,5.351562 -7.22656,0 -12.61718,-1.25 -5.35157,-1.289062 -10.03907,-3.242187 V 59.187597 h 1.64063 q 4.64844,3.710938 10.39062,5.703125 5.78125,1.992188 11.09375,1.992188 1.36719,0 3.59375,-0.234375 2.22657,-0.234375 3.63282,-0.78125 1.71875,-0.703125 2.8125,-1.757813 1.13281,-1.054687 1.13281,-3.125 0,-1.914062 -1.64063,-3.28125 -1.60156,-1.40625 -4.72656,-2.148437 -3.28125,-0.78125 -6.95312,-1.445313 -3.63282,-0.703125 -6.83594,-1.757812 -7.34375,-2.382813 -10.58594,-6.445313 -3.20312,-4.101562 -3.20312,-10.15625 0,-8.125 7.26562,-13.242187 7.30469,-5.15625 18.75,-5.15625 5.74219,0 11.32813,1.132812 5.625,1.09375 9.72656,2.773438 v 13.398437 h -1.60156 q -3.51563,-2.8125 -8.63282,-4.6875 -5.07812,-1.914062 -10.39062,-1.914062 -1.875,0 -3.75,0.273437 -1.83594,0.234375 -3.55469,0.9375 -1.52344,0.585938 -2.61719,1.796875 -1.09375,1.171875 -1.09375,2.695313 0,2.304687 1.75782,3.554687 1.75781,1.210938 6.64062,2.226563 3.20313,0.664062 6.13281,1.289062 2.96875,0.625 6.36719,1.71875 6.67969,2.1875 9.84375,5.976563 3.20313,3.75 3.20313,9.765625 z" style="font-weight:bold;font-size:80px; text-align:center;text-anchor:middle" id="path7257" /> <path d="m 287.24609,58.28916 q 0,8.59375 -7.30468,13.984375 -7.26563,5.351562 -19.76563,5.351562 -7.22656,0 -12.61719,-1.25 -5.35156,-1.289062 -10.03906,-3.242187 V 59.187597 h 1.64063 q 4.64843,3.710938 10.39062,5.703125 5.78125,1.992188 11.09375,1.992188 1.36719,0 3.59375,-0.234375 2.22656,-0.234375 3.63281,-0.78125 1.71875,-0.703125 2.8125,-1.757813 1.13282,-1.054687 1.13282,-3.125 0,-1.914062 -1.64063,-3.28125 -1.60156,-1.40625 -4.72656,-2.148437 -3.28125,-0.78125 -6.95313,-1.445313 -3.63281,-0.703125 -6.83593,-1.757812 -7.34375,-2.382813 -10.58594,-6.445313 -3.20313,-4.101562 -3.20313,-10.15625 0,-8.125 7.26563,-13.242187 7.30469,-5.15625 18.75,-5.15625 5.74219,0 11.32812,1.132812 5.625,1.09375 9.72657,2.773438 v 13.398437 h -1.60157 q -3.51562,-2.8125 -8.63281,-4.6875 -5.07812,-1.914062 -10.39062,-1.914062 -1.875,0 -3.75,0.273437 -1.83594,0.234375 -3.55469,0.9375 -1.52344,0.585938 -2.61719,1.796875 -1.09375,1.171875 -1.09375,2.695313 0,2.304687 1.75781,3.554687 1.75782,1.210938 6.64063,2.226563 3.20312,0.664062 6.13281,1.289062 2.96875,0.625 6.36719,1.71875 6.67969,2.1875 9.84375,5.976563 3.20312,3.75 3.20312,9.765625 z" style="font-weight:bold;font-size:80px; text-align:center;text-anchor:middle" id="path7259" /> <path d="m 328.96484,76.57041 h -34.0625 v -10.3125 h 9.53125 V 28.718847 h -9.53125 v -10.3125 h 34.0625 v 10.3125 h -9.53125 V 66.25791 h 9.53125 z" style="font-weight:bold;font-size:80px; text-align:center;text-anchor:middle" id="path7261" /> <path d="m 394.94141,76.57041 h -15.50782 l -4.02343,-11.757813 h -21.5625 l -4.02344,11.757813 h -15.11719 l 21.48438,-58.164063 h 17.26562 z M 371.77734,54.148535 364.62891,33.28916 357.48047,54.148535 Z" style="font-weight:bold;font-size:80px; text-align:center;text-anchor:middle" id="path7263" /> <path d="M 456.19141,76.57041 H 441.73828 L 417.05078,36.648535 V 76.57041 h -13.75 V 18.406347 h 17.92969 L 442.44141,51.72666 V 18.406347 h 13.75 z" style="font-weight:bold;font-size:80px; text-align:center;text-anchor:middle" id="path7265" /> <path d="M 123.39844,79.899557 107.73438,138.06362 H 91.132812 L 80.703125,100.17299 70.546875,138.06362 H 53.945312 L 38.28125,79.899557 H 53.945312 L 62.890625,119.93862 73.59375,79.899557 H 88.554687 L 98.75,119.93862 108.125,79.899557 Z" style="font-weight:bold;font-size:80px; text-align:center;text-anchor:middle" id="path7267" /> <path d="m 187.14844,138.06362 h -15.50782 l -4.02343,-11.75781 h -21.5625 l -4.02344,11.75781 h -15.11719 l 21.48438,-58.164063 h 17.26562 z m -23.16407,-22.42188 -7.14843,-20.85937 -7.14844,20.85937 z" style="font-weight:bold;font-size:80px; text-align:center;text-anchor:middle" id="path7269" /> <path d="m 228.125,97.712057 q 0,-2.1875 -0.89844,-3.75 -0.89844,-1.5625 -3.08594,-2.460937 -1.52343,-0.625 -3.55468,-0.742188 -2.03125,-0.15625 -4.72657,-0.15625 h -5.42968 v 15.664058 h 4.60937 q 3.59375,0 6.01563,-0.35156 2.42187,-0.35156 4.0625,-1.60156 1.5625,-1.21094 2.26562,-2.65625 0.74219,-1.48438 0.74219,-3.945313 z m 23.39844,40.351563 h -18.32032 l -15.85937,-21.32813 h -6.91406 v 21.32813 H 195.50781 V 79.899557 h 25.15625 q 5.15625,0 8.86719,0.585938 3.71094,0.585937 6.95312,2.539062 3.28125,1.953125 5.19532,5.078125 1.95312,3.085938 1.95312,7.773438 0,6.44531 -3.00781,10.50781 -2.96875,4.0625 -8.51563,6.75781 z" style="font-weight:bold;font-size:80px; text-align:center;text-anchor:middle" id="path7271" /> <path d="m 304.64844,119.78237 q 0,8.59375 -7.30469,13.98437 -7.26563,5.35157 -19.76563,5.35157 -7.22656,0 -12.61718,-1.25 -5.35157,-1.28907 -10.03907,-3.24219 v -13.94531 h 1.64063 q 4.64844,3.71093 10.39062,5.70312 5.78125,1.99219 11.09375,1.99219 1.36719,0 3.59375,-0.23438 2.22657,-0.23437 3.63282,-0.78125 1.71875,-0.70312 2.8125,-1.75781 1.13281,-1.05469 1.13281,-3.125 0,-1.91406 -1.64063,-3.28125 -1.60156,-1.40625 -4.72656,-2.14844 -3.28125,-0.78125 -6.95312,-1.44531 -3.63282,-0.70312 -6.83594,-1.75781 -7.34375,-2.38281 -10.58594,-6.44531 -3.20312,-4.10157 -3.20312,-10.156253 0,-8.125 7.26562,-13.242187 7.30469,-5.15625 18.75,-5.15625 5.74219,0 11.32813,1.132812 5.625,1.09375 9.72656,2.773438 v 13.398437 h -1.60156 q -3.51563,-2.8125 -8.63282,-4.6875 -5.07812,-1.914062 -10.39062,-1.914062 -1.875,0 -3.75,0.273437 -1.83594,0.234375 -3.55469,0.9375 -1.52344,0.585938 -2.61719,1.796875 -1.09375,1.171875 -1.09375,2.695313 0,2.304687 1.75782,3.554687 1.75781,1.210933 6.64062,2.226563 3.20313,0.66406 6.13281,1.28906 2.96875,0.625 6.36719,1.71875 6.67969,2.1875 9.84375,5.97656 3.20313,3.75 3.20313,9.76563 z" style="font-weight:bold;font-size:80px; text-align:center;text-anchor:middle" id="path7273" /> <path d="m 367.07031,138.06362 h -15 v -25.625 h -22.14844 v 25.625 h -15 V 79.899557 h 15 v 21.289063 h 22.14844 V 79.899557 h 15 z" style="font-weight:bold;font-size:80px; text-align:center;text-anchor:middle" id="path7275" /> <path d="m 413.35937,138.06362 h -34.0625 v -10.3125 h 9.53125 V 90.212057 h -9.53125 v -10.3125 h 34.0625 v 10.3125 h -9.53125 v 37.539063 h 9.53125 z" style="font-weight:bold;font-size:80px; text-align:center;text-anchor:middle" id="path7277" /> <path d="m 473.59375,98.258932 q 0,3.906248 -1.36719,7.656248 -1.36719,3.71094 -3.90625,6.25 -3.47656,3.4375 -7.77344,5.19531 -4.25781,1.75782 -10.625,1.75782 h -9.33593 v 18.94531 h -15 V 79.899557 h 24.6875 q 5.54687,0 9.33593,0.976563 3.82813,0.9375 6.75782,2.851562 3.51562,2.304688 5.35156,5.898438 1.875,3.59375 1.875,8.632812 z m -15.50781,0.351563 q 0,-2.460938 -1.32813,-4.21875 -1.32812,-1.796875 -3.08594,-2.5 -2.34375,-0.9375 -4.57031,-1.015625 -2.22656,-0.117188 -5.9375,-0.117188 h -2.57812 v 17.421878 h 4.29687 q 3.82813,0 6.28906,-0.46875 2.5,-0.46875 4.17969,-1.875 1.44531,-1.25 2.07031,-2.96875 0.66407,-1.75782 0.66407,-4.257815 z" style="font-weight:bold;font-size:80px; text-align:center;text-anchor:middle" id="path7279" /> </g> <g aria-label="GO FUCK YOURSELF" transform="translate(14,99.333)" id="text3461" style="font-size:40px;line-height:125%;letter-spacing:0px;word-spacing:0px;white-space:pre;shape-inside:url(#rect3463);display:inline;fill:#338af3;stroke-width:1px"> <path d="m 117.24636,236.42145 q -3.64584,1.42188 -9.66147,2.84376 -6.01562,1.38541 -11.994793,1.38541 -13.854173,0 -21.692719,-7.51042 -7.838545,-7.54688 -7.838545,-20.81772 0,-12.65104 7.911462,-20.38021 7.911462,-7.76563 22.057302,-7.76563 5.359373,0 10.208343,0.98437 4.84896,0.94792 10.79167,3.82813 v 12.72396 h -1.56771 q -1.02084,-0.76562 -2.98959,-2.15104 -1.96875,-1.42187 -3.79167,-2.40625 -2.11458,-1.16667 -4.95833,-2.00521 -2.80729,-0.83854 -5.97917,-0.83854 -3.718752,0 -6.744795,1.09375 -3.026043,1.09375 -5.432295,3.35417 -2.296876,2.1875 -3.645835,5.57813 -1.3125,3.35416 -1.3125,7.76562 0,9.00522 4.776044,13.78126 4.776044,4.77604 14.109381,4.77604 0.80208,0 1.75,-0.0365 0.98438,-0.0365 1.78646,-0.10938 V 219.86936 H 92.19947 v -10.24479 h 25.04689 z" style="font-weight:bold;font-size:74.6667px; text-align:center;text-anchor:middle" id="path7314" /> <path d="m 182.57972,212.3954 q 0,12.97917 -7.4375,20.63543 -7.43751,7.61979 -20.56251,7.61979 -13.08855,0 -20.52605,-7.61979 -7.43751,-7.65626 -7.43751,-20.63543 0,-13.08855 7.43751,-20.67188 7.4375,-7.6198 20.52605,-7.6198 13.05209,0 20.52605,7.6198 7.47396,7.58333 7.47396,20.67188 z m -18.5573,13.7448 q 2.04167,-2.47917 3.02604,-5.83334 0.98438,-3.39062 0.98438,-7.94792 0,-4.88542 -1.13021,-8.3125 -1.13021,-3.42709 -2.95313,-5.54167 -1.85937,-2.1875 -4.30208,-3.17188 -2.40625,-0.98437 -5.03125,-0.98437 -2.66146,0 -5.03126,0.94791 -2.33333,0.94792 -4.30208,3.13542 -1.82292,2.04167 -2.98959,5.65105 -1.13021,3.57291 -1.13021,8.3125 0,4.84896 1.09375,8.27605 1.13021,3.39062 2.95313,5.54167 1.82292,2.15104 4.26563,3.17187 2.44271,1.02084 5.14063,1.02084 2.69791,0 5.14062,-1.02084 2.44271,-1.05729 4.26563,-3.24479 z" style="font-weight:bold;font-size:74.6667px; text-align:center;text-anchor:middle" id="path7316" /> <path d="m 257.68392,195.73393 h -24.97397 v 10.09897 h 23.15106 v 10.5 h -23.15106 v 23.18751 h -13.92709 v -54.28648 h 38.90106 z" style="font-weight:bold;font-size:74.6667px; text-align:center;text-anchor:middle" id="path7318" /> <path d="m 314.88707,219.86936 q 0,10.06251 -6.125,15.42188 -6.12501,5.35938 -18.04689,5.35938 -11.92188,0 -18.04688,-5.35938 -6.08855,-5.35937 -6.08855,-15.38542 v -34.67189 h 14.07293 v 33.86981 q 0,5.65104 2.36979,8.42188 2.36979,2.77083 7.69271,2.77083 5.25,0 7.65626,-2.66146 2.44271,-2.66146 2.44271,-8.53125 v -33.86981 h 14.07292 z" style="font-weight:bold;font-size:74.6667px; text-align:center;text-anchor:middle" id="path7320" /> <path d="m 352.51208,240.57771 q -6.05208,0 -11.19271,-1.78646 -5.10417,-1.78646 -8.78646,-5.32292 -3.6823,-3.53646 -5.72396,-8.82292 -2.00521,-5.28646 -2.00521,-12.21355 0,-6.45313 1.93229,-11.70313 1.93229,-5.25 5.61458,-9.00521 3.53646,-3.60938 8.75001,-5.57813 5.25,-1.96875 11.44792,-1.96875 3.42709,0 6.16146,0.40104 2.77084,0.36458 5.10417,0.98437 2.44271,0.69271 4.41146,1.56771 2.00521,0.83855 3.5,1.56771 v 13.16147 h -1.60416 q -1.02084,-0.875 -2.58855,-2.07813 -1.53125,-1.20312 -3.5,-2.36979 -2.00521,-1.16667 -4.33854,-1.96875 -2.33334,-0.80209 -4.9948,-0.80209 -2.95312,0 -5.61458,0.94792 -2.66146,0.91146 -4.92188,3.0625 -2.15104,2.07813 -3.5,5.50521 -1.3125,3.42709 -1.3125,8.31251 0,5.10417 1.42187,8.53125 1.45834,3.42709 3.64584,5.39584 2.22396,2.00521 4.95833,2.88021 2.73438,0.83854 5.39584,0.83854 2.55209,0 5.03125,-0.76563 2.51563,-0.76562 4.63021,-2.07812 1.78646,-1.05729 3.31771,-2.26042 1.53125,-1.20313 2.51563,-2.07813 h 1.45833 v 12.97918 q -2.04166,0.91146 -3.90104,1.71354 -1.85938,0.80208 -3.90104,1.38542 -2.66146,0.76562 -4.9948,1.16666 -2.33333,0.40105 -6.41667,0.40105 z" style="font-weight:bold;font-size:74.6667px; text-align:center;text-anchor:middle" id="path7322" /> <path d="m 432.684,239.52041 h -17.17188 l -16.22397,-21.72917 -3.28125,3.97396 v 17.75521 h -14.00001 v -54.28648 h 14.00001 v 24.57293 l 19.39584,-24.57293 h 16.22397 l -21.21876,25.1198 z" style="font-weight:bold;font-size:74.6667px; text-align:center;text-anchor:middle" id="path7324" /> <path d="M 83.303633,245.19473 63.287998,278.4812 v 21.00001 H 49.287991 V 279.13745 L 28.944232,245.19473 h 15.895841 l 11.739589,21.00001 11.338547,-21.00001 z" style="font-weight:bold;font-size:74.6667px; text-align:center;text-anchor:middle" id="path7326" /> <path d="m 143.35054,272.3562 q 0,12.97917 -7.43751,20.63543 -7.4375,7.61979 -20.56251,7.61979 -13.08854,0 -20.526048,-7.61979 -7.437504,-7.65626 -7.437504,-20.63543 0,-13.08855 7.437504,-20.67188 7.437508,-7.6198 20.526048,-7.6198 13.05209,0 20.52605,7.6198 7.47397,7.58333 7.47397,20.67188 z m -18.5573,13.7448 q 2.04166,-2.47917 3.02604,-5.83334 0.98437,-3.39062 0.98437,-7.94792 0,-4.88542 -1.1302,-8.3125 -1.13021,-3.42709 -2.95313,-5.54167 -1.85938,-2.1875 -4.30209,-3.17188 -2.40625,-0.98437 -5.03125,-0.98437 -2.66146,0 -5.03125,0.94791 -2.33334,0.94792 -4.30209,3.13542 -1.82291,2.04167 -2.98958,5.65105 -1.13021,3.57292 -1.13021,8.3125 0,4.84896 1.09375,8.27605 1.13021,3.39062 2.95313,5.54167 1.82291,2.15104 4.26562,3.17187 2.44271,1.02084 5.14063,1.02084 2.69792,0 5.14063,-1.02084 2.44271,-1.05729 4.26563,-3.24479 z" style="font-weight:bold;font-size:74.6667px; text-align:center;text-anchor:middle" id="path7328" /> <path d="m 201.57452,279.83016 q 0,10.06251 -6.125,15.42188 -6.125,5.35938 -18.04688,5.35938 -11.92189,0 -18.04689,-5.35938 -6.08854,-5.35937 -6.08854,-15.38542 v -34.67189 h 14.07292 v 33.86981 q 0,5.65104 2.36979,8.42188 2.3698,2.77083 7.69272,2.77083 5.25,0 7.65625,-2.66146 2.44271,-2.66146 2.44271,-8.53125 v -33.86981 h 14.07292 z" style="font-weight:bold;font-size:74.6667px; text-align:center;text-anchor:middle" id="path7330" /> <path d="m 245.10579,261.81974 q 0,-2.04167 -0.83854,-3.5 -0.83855,-1.45834 -2.88021,-2.29688 -1.42188,-0.58333 -3.31771,-0.69271 -1.89584,-0.14583 -4.41146,-0.14583 h -5.06771 v 14.6198 h 4.30208 q 3.35417,0 5.61459,-0.32813 2.26042,-0.32812 3.79167,-1.49479 1.45833,-1.13021 2.11458,-2.47917 0.69271,-1.38542 0.69271,-3.68229 z m 21.83855,37.66147 h -17.09897 l -14.80209,-19.90626 h -6.45312 v 19.90626 h -13.92709 v -54.28648 h 23.47917 q 4.81251,0 8.27605,0.54687 3.46354,0.54688 6.48959,2.3698 3.0625,1.82292 4.84896,4.73958 1.82291,2.88021 1.82291,7.25521 0,6.01563 -2.80729,9.8073 -2.77083,3.79167 -7.94792,6.3073 z" style="font-weight:bold;font-size:74.6667px; text-align:center;text-anchor:middle" id="path7332" /> <path d="m 316.5277,282.41871 q 0,8.02083 -6.81771,13.05209 -6.78125,4.99479 -18.44793,4.99479 -6.74479,0 -11.77604,-1.16667 -4.9948,-1.20312 -9.3698,-3.02604 v -13.01563 h 1.53125 q 4.33854,3.46354 9.69792,5.32292 5.39584,1.85937 10.35417,1.85937 1.27605,0 3.35417,-0.21875 2.07813,-0.21875 3.39063,-0.72916 1.60417,-0.65625 2.625,-1.64063 1.05729,-0.98438 1.05729,-2.91667 0,-1.78646 -1.53125,-3.0625 -1.49479,-1.3125 -4.41146,-2.00521 -3.0625,-0.72917 -6.48959,-1.34896 -3.39062,-0.65625 -6.38021,-1.64062 -6.85417,-2.22396 -9.88021,-6.01563 -2.98958,-3.82813 -2.98958,-9.47917 0,-7.58334 6.78125,-12.35938 6.81771,-4.81251 17.50001,-4.81251 5.35937,0 10.57292,1.0573 5.25,1.02083 9.07813,2.58854 v 12.50521 h -1.49479 q -3.28126,-2.625 -8.0573,-4.375 -4.73959,-1.78646 -9.69792,-1.78646 -1.75,0 -3.5,0.25521 -1.71355,0.21875 -3.31771,0.875 -1.42188,0.54688 -2.44271,1.67709 -1.02084,1.09375 -1.02084,2.51562 0,2.15104 1.64063,3.31771 1.64063,1.13021 6.19792,2.07813 2.98958,0.61979 5.72396,1.20312 2.77084,0.58334 5.94271,1.60417 6.23438,2.04167 9.18751,5.57813 2.98958,3.5 2.98958,9.11459 z" style="font-weight:bold;font-size:74.6667px; text-align:center;text-anchor:middle" id="path7334" /> <path d="m 365.3819,299.48121 h -39.26565 v -54.28648 h 39.26565 v 10.5 h -25.33856 v 9.3698 h 23.51564 v 10.50001 h -23.51564 v 13.41667 h 25.33856 z" style="font-weight:bold;font-size:74.6667px; text-align:center;text-anchor:middle" id="path7336" /> <path d="m 416.27774,299.48121 h -39.15627 v -54.28648 h 14.00001 v 43.78648 h 25.15626 z" style="font-weight:bold;font-size:74.6667px; text-align:center;text-anchor:middle" id="path7338" /> <path d="m 463.60069,255.69473 h -24.97397 v 10.09897 h 23.15105 v 10.5 h -23.15105 v 23.18751 h -13.92709 v -54.28648 h 38.90106 z" style="font-weight:bold;font-size:74.6667px; text-align:center;text-anchor:middle" id="path7340" /></g></svg>